# AST/ASF file generated using VICON BodyLanguage
# -----------------------------------------------
:version 1.10
:name VICON
:units
  mass 1.0
  length 0.45
  angle deg
:documentation
   .ast/.asf automatically generated from VICON data using
   VICON BodyBuilder and BodyLanguage model FoxedUp or BRILLIANT.MOD
:root
   order TX TY TZ RX RY RZ
   axis XYZ
   position 0 0 0  
   orientation 0 0 0 
:bonedata
  begin
     id 1 
     name lhipjoint
     direction 0.602128 -0.715006 0.355257 
     length 2.21237 
     axis 0 0 0  XYZ
  end
  begin
     id 2 
     name lfemur
     direction 0.34202 -0.939693 0  
     length 6.71649  
     axis 0 0 20  XYZ
    dof rx ry rz
    limits (-160.0 20.0)
           (-70.0 70.0)
           (-60.0 70.0)
  end
  begin
     id 3 
     name ltibia
     direction 0.34202 -0.939693 0   
     length 6.97123   
     axis 0 0 20   XYZ
    dof rx
    limits (-10.0 170.0)
  end
  begin
     id 4 
     name lfoot
     direction 0.0655697 -0.180151 0.981451   
     length 1.80924   
     axis -90 7.62852e-016 20   XYZ
    dof rx rz
    limits (-45.0 90.0)
           (-70.0 20.0)
  end
  begin
     id 5 
     name ltoes
     direction 1.53545e-011 -4.21827e-011 1   
     length 0.916331   
     axis -90 7.62852e-016 20   XYZ
    dof rx
    limits (-90.0 20.0)
  end
  begin
     id 6 
     name rhipjoint
     direction -0.625414 -0.698792 0.347201   
     length 2.2637  
     axis 0 0 0  XYZ 
  end
  begin
     id 7 
     name rfemur
     direction -0.34202 -0.939693 0   
     length 7.07595   
     axis 0 0 -20   XYZ
    dof rx ry rz
    limits (-160.0 20.0)
           (-70.0 70.0)
           (-70.0 60.0)
  end
  begin
     id 8 
     name rtibia
     direction -0.34202 -0.939693 0   
     length 7.22924   
     axis 0 0 -20   XYZ
    dof rx
    limits (-10.0 170.0)
 end
 begin
     id 9 
     name rfoot
     direction -0.0766747 -0.210662 0.974547   
     length 1.98482  
     axis -90 -7.62852e-016 -20   XYZ
    dof rx rz
    limits (-45.0 90.0)
           (-20.0 70.0)
  end
  begin
     id 10 
     name rtoes
     direction -1.53532e-011 -4.21867e-011 1   
     length 0.999842   
     axis -90 -7.62852e-016 -20   XYZ
    dof rx
    limits (-90.0 20.0)
  end
  begin
     id 11 
     name lowerback
     direction -0.0224668 0.997354 -0.0691422   
     length 2.09945   
     axis 0 0 0   XYZ
    dof rx ry rz
    limits (-20.0 45.0)
           (-30.0 30.0)
           (-30.0 30.0)
  end
  begin
     id 12 
     name upperback
     direction 0.0134698 0.998451 -0.0539888   
     length 2.09758   
     axis 0 0 0   XYZ
    dof rx ry rz
    limits (-20.0 45.0)
           (-30.0 30.0)
           (-30.0 30.0)
  end
  begin
     id 13 
     name thorax
     direction 0.0241905 0.99948 -0.0213333   
     length 2.10428   
     axis 0 0 0   XYZ
    dof rx ry rz
    limits (-20.0 45.0)
           (-30.0 30.0)
           (-30.0 30.0)
  end
  begin
     id 14 
     name lowerneck
     direction -0.00866847 0.995978 0.0891737   
     length 1.3959   
     axis 0 0 0   XYZ
    dof rx ry rz
    limits (-20.0 45.0)
           (-30.0 30.0)
           (-30.0 30.0)
  end
  begin
     id 15 
     name upperneck
     direction 0.0680679 0.992203 0.104404   
     length 1.39452   
     axis 0 0 0   XYZ
    dof rx ry rz
    limits (-20.0 45.0)
           (-30.0 30.0)
           (-30.0 30.0)
  end
  begin
     id 16
     name head
     direction 0.0242216 0.999358 0.0264054  
     length 1.40433  
     axis 0 0 0   XYZ
    dof rx ry rz
    limits (-20.0 45.0)
           (-30.0 30.0)
           (-30.0 30.0)
  end
  begin
     id 17 
     name lclavicle
     direction 0.929368 0.362991 -0.0671771  
     length 3.04887  
     axis 0 0 0   XYZ
    dof ry rz
    limits (-20.0 10.0)
           (0.0 20.0)
  end
  begin
     id 18 
     name lhumerus
     direction 1 -4.48967e-011 -7.13741e-028   
     length 4.77195   
     axis -180 -30 -90   XYZ
    dof rx ry rz
    limits (-60.0 90.0)
           (-90.0 90.0)
           (-90.0 90.0)
  end
  begin
     id 19
     name lradius
     direction 1 -4.48977e-011 3.60404e-027   
     length 2.98444   
     axis -180 -30 -90   XYZ
    dof rx
    limits (-10.0 170.0)
  end
  begin
     id 20
     name lwrist
     direction 1 -4.48997e-011 7.54877e-027   
     length 1.49222   
     axis -7.18178e-015 90 90   XYZ
    dof ry
    limits (-180.0 0.0)
 end
  begin
     id 21 
     name lhand
     direction 1 -4.489e-011 1.51105e-026   
     length 0.992285   
     axis -9.63605e-015 90 90   XYZ
    dof rx rz
    limits (-90.0 90.0)
           (-45.0 45.0)
  end
  begin
     id 22 
     name lfingers
     direction 1 -4.48998e-011 3.01948e-026   
     length 0.800006   
     axis -1.92718e-014 90 90   XYZ
    dof rx
    limits (0.0 90.0)
  end
  begin
     id 23
     name lthumb
     direction 0.707107 -6.34881e-011 0.707107   
     length 1.14865   
     axis -90 45 -3.53137e-014   XYZ
    dof rx rz
    limits (-45.0 45.0)
           (-45.0 45.0)
  end
  begin
     id 24 
     name rclavicle
     direction -0.945672 0.324529 0.0196374   
     length 3.4236  
     axis 0 0 0   XYZ 
    dof ry rz
    limits (-10.0 20.0)
           (-20.0 0.0)
  end
  begin
     id 25 
     name rhumerus
     direction -1 -4.4896e-011 1.02757e-029  
     length 4.62052   
     axis -180 30 90   XYZ
    dof rx ry rz
    limits (-90.0 60.0)
           (-90.0 90.0)
           (-90.0 90.0)
  end
  begin
     id 26 
     name rradius
     direction -1 -4.48982e-011 3.85962e-027   
     length 2.95332   
     axis -180 30 90   XYZ
    dof rx
    limits (-10.0 170.0)
  end
  begin
     id 27 
     name rwrist
     direction -1 -4.48961e-011 7.55118e-027   
     length 1.47666   
     axis -7.18178e-015 -90 -90   XYZ
    dof ry
    limits (-180.0 0.0)
  end
  begin
     id 28
     name rhand
     direction -1 -4.48984e-011 1.50994e-026   
     length 0.990956   
     axis -9.63605e-015 -90 -90   XYZ
    dof rx rz
    limits (-90.0 90.0)
           (-45.0 45.0)
  end
  begin
     id 29
     name rfingers
     direction -1 -4.4892e-011 3.02158e-026   
     length 0.798934   
     axis -1.92718e-014 -90 -90   XYZ
    dof rx
    limits (0.0 90.0)
  end
  begin
     id 30
     name rthumb
     direction -0.707107 -6.34916e-011 0.707107   
     length 1.14711   
     axis -90 -45 3.53137e-014   XYZ
    dof rx rz
    limits (-45.0 45.0)
           (-45.0 45.0)
  end
:hierarchy
  begin
    root lhipjoint rhipjoint lowerback
    lhipjoint lfemur
    lfemur ltibia
    ltibia lfoot
    lfoot ltoes
    rhipjoint rfemur
    rfemur rtibia
    rtibia rfoot
    rfoot rtoes
    lowerback upperback
    upperback thorax
    thorax lowerneck lclavicle rclavicle
    lowerneck upperneck
    upperneck head
    lclavicle lhumerus
    lhumerus lradius
    lradius lwrist
    lwrist lhand lthumb
    lhand lfingers
    rclavicle rhumerus
    rhumerus rradius
    rradius rwrist
    rwrist rhand rthumb
    rhand rfingers
  end

#!OML:ASF H:\ManfredObstacles\Project 1\Capture day 1\Session 1\Male.ASF
:FULLY-SPECIFIED
:DEGREES
78
root -3.09703 15.9271 47.5779 -168.938 -10.1837 -177.543
lowerback -8.31303 -2.76875 -0.744765
upperback 0.314856 -3.76822 2.08716
thorax 5.17933 -1.92968 2.10798
lowerneck 1.86188 -2.75922 -5.91505
upperneck -11.4506 -3.55095 10.7518
head -3.3735 -2.2505 4.39129
rclavicle -5.42931e-015 -9.16894e-015
rhumerus -41.6046 -29.9006 -68.9877
rradius 23.2954
rwrist 39.8127
rhand -2.22501 -5.60278
rfingers 7.12502
rthumb 23.4576 -34.1928
lclavicle -5.42931e-015 -9.16894e-015
lhumerus -25.3472 8.72116 87.78
lradius 23.1273
lwrist -16.2342
lhand 2.16982 8.35191
lfingers 7.12502
lthumb 27.667 36.3371
rfemur -34.5874 -1.4304 19.8045
rtibia 32.6808
rfoot -16.5029 6.8645
rtoes 16.197
lfemur 2.84672 -5.78238 -19.2931
ltibia -5.88403e-014
lfoot -6.27635 -4.79298
ltoes 20.832
79
root -3.07368 15.9247 47.52 -168.851 -10.3079 -177.321
lowerback -8.31149 -2.78084 -0.529368
upperback 0.301146 -3.81583 2.19431
thorax 5.15972 -1.95098 2.09297
lowerneck 1.82065 -2.69176 -5.95247
upperneck -11.5804 -3.46065 10.7993
head -3.41122 -2.21319 4.41302
rclavicle 2.31149e-014 -1.43125e-014
rhumerus -41.8638 -29.9016 -68.7982
rradius 23.3164
rwrist 39.7366
rhand -2.2328 -5.74425
rfingers 7.12502
rthumb 23.4501 -34.3352
lclavicle 2.31149e-014 -1.43125e-014
lhumerus -25.1664 8.42826 87.9803
lradius 23.4618
lwrist -15.4551
lhand 2.47764 8.40301
lfingers 7.12502
lthumb 27.9613 36.3407
rfemur -34.5682 -1.354 20.1668
rtibia 32.8232
rfoot -16.8601 6.73414
rtoes 15.5024
lfemur 2.89608 -5.85971 -18.9097
ltibia 4.13472e-014
lfoot -6.05601 -4.66834
ltoes 22.4611
80
root -3.04598 15.9256 47.4564 -168.649 -10.3291 -177.253
lowerback -8.41901 -2.82906 -0.553476
upperback 0.302886 -3.88893 2.31367
thorax 5.23581 -1.99138 2.21575
lowerneck 1.71185 -2.61351 -6.00091
upperneck -11.7477 -3.3615 10.7835
head -3.45096 -2.16883 4.4164
rclavicle -1.25359e-014 7.00716e-015
rhumerus -41.9409 -29.9493 -68.5726
rradius 23.2454
rwrist 39.6786
rhand -2.17963 -5.77262
rfingers 7.12502
rthumb 23.5011 -34.3571
lclavicle -1.25359e-014 7.00716e-015
lhumerus -24.8569 8.19685 88.2751
lradius 23.46
lwrist -15.5516
lhand 2.0118 7.90544
lfingers 7.12502
lthumb 27.5159 35.9148
rfemur -34.6573 -1.23655 20.3665
rtibia 33.0041
rfoot -17.2094 6.7006
rtoes 15.4339
lfemur 2.87745 -5.86276 -18.6627
ltibia 0
lfoot -6.04469 -4.66552
ltoes 22.5081
81
root -3.01977 15.9315 47.3887 -168.424 -10.5015 -177.231
lowerback -8.5912 -2.93351 -0.539414
upperback 0.320942 -4.04025 2.41507
thorax 5.36578 -2.06903 2.2841
lowerneck 1.64405 -2.61466 -6.08158
upperneck -11.8328 -3.36964 10.7512
head -3.46358 -2.17069 4.42094
rclavicle 7.76503e-015 -6.36111e-015
rhumerus -42.0106 -30.066 -68.3118
rradius 23.1639
rwrist 39.7187
rhand -2.16387 -5.52477
rfingers 7.12502
rthumb 23.5162 -34.1073
lclavicle 7.76503e-015 -6.36111e-015
lhumerus -24.1497 8.94554 88.2546
lradius 22.9195
lwrist -15.5382
lhand 2.46187 7.68823
lfingers 7.12502
lthumb 27.9462 35.6283
rfemur -34.7451 -1.30497 20.546
rtibia 33.2206
rfoot -17.512 6.75821
rtoes 15.5271
lfemur 2.82028 -6.02205 -18.4176
ltibia -4.13472e-014
lfoot -5.80149 -4.60081
ltoes 23.2516
82
root -2.993 15.9353 47.3186 -168.306 -10.8138 -177.266
lowerback -8.56864 -3.02882 -0.468558
upperback 0.319749 -4.17281 2.40079
thorax 5.35203 -2.13196 2.21275
lowerneck 1.59035 -2.71116 -5.91529
upperneck -11.7829 -3.50122 10.6445
head -3.43421 -2.2349 4.36042
rclavicle 1.28216e-014 -2.18663e-014
rhumerus -42.3657 -30.3126 -68.0516
rradius 23.177
rwrist 39.8634
rhand -2.27105 -5.23534
rfingers 7.12502
rthumb 23.4134 -33.831
lclavicle 1.28216e-014 -2.18663e-014
lhumerus -23.5337 9.50722 88.1323
lradius 22.4446
lwrist -15.4702
lhand 3.05062 7.66478
lfingers 7.12502
lthumb 28.5089 35.5119
rfemur -34.6802 -1.51699 20.6878
rtibia 33.4246
rfoot -17.8579 6.83714
rtoes 15.8434
lfemur 2.79512 -6.33365 -18.2243
ltibia -6.52014e-014
lfoot -5.36273 -4.5371
ltoes 24.4942
83
root -2.96298 15.9299 47.2364 -168.235 -10.6058 -177.243
lowerback -8.60412 -2.97764 -0.413152
upperback 0.330963 -4.1086 2.37158
thorax 5.37457 -2.09805 2.15795
lowerneck 1.56491 -2.75382 -5.7795
upperneck -11.7216 -3.55965 10.559
head -3.41159 -2.26255 4.31031
rclavicle 4.02663e-014 2.93207e-015
rhumerus -42.7732 -30.5583 -67.7723
rradius 23.1917
rwrist 40.0502
rhand -2.32777 -4.97926
rfingers 7.12502
rthumb 23.359 -33.5819
lclavicle 4.02663e-014 2.93207e-015
lhumerus -23.1089 9.6737 88.0819
lradius 22.0068
lwrist -15.6489
lhand 2.9648 7.17069
lfingers 7.12502
lthumb 28.4269 35.0316
rfemur -34.5624 -1.4447 20.8867
rtibia 33.5485
rfoot -18.1716 7.17782
rtoes 16.5584
lfemur 2.90013 -6.12413 -18.0582
ltibia -1.43125e-014
lfoot -5.06145 -4.66236
ltoes 25.7887
84
root -2.92654 15.9276 47.1536 -168.226 -10.5068 -177.212
lowerback -8.5584 -3.04104 -0.40418
upperback 0.371072 -4.19735 2.41574
thorax 5.39779 -2.14284 2.18813
lowerneck 1.4352 -2.70907 -5.92879
upperneck -11.5919 -3.50086 10.6169
head -3.35161 -2.22367 4.34578
rclavicle 6.13251e-014 -8.99501e-015
rhumerus -42.9282 -30.63 -67.5815
rradius 23.1368
rwrist 40.1631
rhand -2.25071 -4.8832
rfingers 7.12502
rthumb 23.4329 -33.4764
lclavicle 6.13251e-014 -8.99501e-015
lhumerus -22.3606 10.4221 87.8623
lradius 21.0702
lwrist -15.6856
lhand 3.34676 6.70222
lfingers 7.12502
lthumb 28.7919 34.5016
rfemur -34.3468 -1.31618 21.0906
rtibia 33.6222
rfoot -18.5037 7.3481
rtoes 17.3558
lfemur 3.25786 -6.01776 -17.8652
ltibia 7.31528e-014
lfoot -5.31727 -4.8732
ltoes 22.1042
85
root -2.88761 15.9385 47.0656 -168.127 -10.528 -177.285
lowerback -8.57665 -3.11032 -0.448532
upperback 0.396065 -4.28222 2.38744
thorax 5.43928 -2.18481 2.17023
lowerneck 1.24742 -2.66618 -6.0394
upperneck -11.4722 -3.44094 10.7378
head -3.28433 -2.1904 4.39358
rclavicle 4.13596e-014 -1.23743e-014
rhumerus -43.1131 -30.6613 -67.5111
rradius 23.1437
rwrist 40.0671
rhand -2.22544 -5.06433
rfingers 7.12502
rthumb 23.4571 -33.6544
lclavicle 4.13596e-014 -1.23743e-014
lhumerus -22.5577 9.32796 88.2028
lradius 21.61
lwrist -16.2975
lhand 2.507 7.5323
lfingers 7.12502
lthumb 27.9894 35.4654
rfemur -34.1498 -1.38922 21.274
rtibia 33.6178
rfoot -18.4349 7.40045
rtoes 16.3626
lfemur 3.48707 -6.04957 -17.7336
ltibia -2.54444e-014
lfoot -4.39312 -4.32952
ltoes 24.1337
86
root -2.84671 15.9464 46.9713 -167.99 -10.4427 -177.373
lowerback -8.65086 -3.07769 -0.478657
upperback 0.365073 -4.22729 2.28677
thorax 5.44025 -2.15547 2.08672
lowerneck 1.28919 -2.64965 -5.93568
upperneck -11.4864 -3.41649 10.7345
head -3.29979 -2.18444 4.37605
rclavicle 1.10947e-014 -6.75868e-015
rhumerus -43.5531 -30.7855 -67.3384
rradius 23.21
rwrist 39.9405
rhand -2.12879 -5.23187
rfingers 7.12502
rthumb 23.5499 -33.8101
lclavicle 1.10947e-014 -6.75868e-015
lhumerus -22.3001 9.16373 88.1046
lradius 21.3653
lwrist -16.1952
lhand 2.80235 7.70098
lfingers 7.12502
lthumb 28.2717 35.5877
rfemur -33.957 -1.53311 21.4839
rtibia 33.5449
rfoot -17.9634 7.48402
rtoes 12.7929
lfemur 3.69592 -5.98038 -17.6045
ltibia -5.725e-014
lfoot -3.98171 -4.05297
ltoes 24.0727
